<svg width="21" height="21" viewBox="0 0 21 21" fill="none" xmlns="http://www.w3.org/2000/svg">
<path d="M9.6665 15.0002H11.3332V11.6669H14.6665V10.0002H11.3332V6.66691H9.6665V10.0002H6.33317V11.6669H9.6665V15.0002ZM10.4998 19.1669C9.34706 19.1669 8.26373 18.9482 7.24984 18.5107C6.23595 18.0732 5.354 17.4794 4.604 16.7294C3.854 15.9794 3.26025 15.0975 2.82275 14.0836C2.38525 13.0697 2.1665 11.9864 2.1665 10.8336C2.1665 9.6808 2.38525 8.59747 2.82275 7.58358C3.26025 6.56969 3.854 5.68774 4.604 4.93774C5.354 4.18774 6.23595 3.59399 7.24984 3.15649C8.26373 2.71899 9.34706 2.50024 10.4998 2.50024C11.6526 2.50024 12.7359 2.71899 13.7498 3.15649C14.7637 3.59399 15.6457 4.18774 16.3957 4.93774C17.1457 5.68774 17.7394 6.56969 18.1769 7.58358C18.6144 8.59747 18.8332 9.6808 18.8332 10.8336C18.8332 11.9864 18.6144 13.0697 18.1769 14.0836C17.7394 15.0975 17.1457 15.9794 16.3957 16.7294C15.6457 17.4794 14.7637 18.0732 13.7498 18.5107C12.7359 18.9482 11.6526 19.1669 10.4998 19.1669ZM10.4998 17.5002C12.3609 17.5002 13.9373 16.8544 15.229 15.5627C16.5207 14.2711 17.1665 12.6947 17.1665 10.8336C17.1665 8.97247 16.5207 7.39608 15.229 6.10441C13.9373 4.81274 12.3609 4.16691 10.4998 4.16691C8.63873 4.16691 7.06234 4.81274 5.77067 6.10441C4.479 7.39608 3.83317 8.97247 3.83317 10.8336C3.83317 12.6947 4.479 14.2711 5.77067 15.5627C7.06234 16.8544 8.63873 17.5002 10.4998 17.5002Z" fill="#1F2937"/>
</svg>
