<svg width="21" height="21" viewBox="0 0 21 21" fill="none" xmlns="http://www.w3.org/2000/svg">
<path d="M9.5 14.5H11.1667V9.5H9.5V14.5ZM10.3333 7.83333C10.5694 7.83333 10.7674 7.75347 10.9271 7.59375C11.0868 7.43403 11.1667 7.23611 11.1667 7C11.1667 6.76389 11.0868 6.56597 10.9271 6.40625C10.7674 6.24653 10.5694 6.16667 10.3333 6.16667C10.0972 6.16667 9.89931 6.24653 9.73958 6.40625C9.57986 6.56597 9.5 6.76389 9.5 7C9.5 7.23611 9.57986 7.43403 9.73958 7.59375C9.89931 7.75347 10.0972 7.83333 10.3333 7.83333ZM10.3333 18.6667C9.18056 18.6667 8.09722 18.4479 7.08333 18.0104C6.06944 17.5729 5.1875 16.9792 4.4375 16.2292C3.6875 15.4792 3.09375 14.5972 2.65625 13.5833C2.21875 12.5694 2 11.4861 2 10.3333C2 9.18056 2.21875 8.09722 2.65625 7.08333C3.09375 6.06944 3.6875 5.1875 4.4375 4.4375C5.1875 3.6875 6.06944 3.09375 7.08333 2.65625C8.09722 2.21875 9.18056 2 10.3333 2C11.4861 2 12.5694 2.21875 13.5833 2.65625C14.5972 3.09375 15.4792 3.6875 16.2292 4.4375C16.9792 5.1875 17.5729 6.06944 18.0104 7.08333C18.4479 8.09722 18.6667 9.18056 18.6667 10.3333C18.6667 11.4861 18.4479 12.5694 18.0104 13.5833C17.5729 14.5972 16.9792 15.4792 16.2292 16.2292C15.4792 16.9792 14.5972 17.5729 13.5833 18.0104C12.5694 18.4479 11.4861 18.6667 10.3333 18.6667ZM10.3333 17C12.1944 17 13.7708 16.3542 15.0625 15.0625C16.3542 13.7708 17 12.1944 17 10.3333C17 8.47222 16.3542 6.89583 15.0625 5.60417C13.7708 4.3125 12.1944 3.66667 10.3333 3.66667C8.47222 3.66667 6.89583 4.3125 5.60417 5.60417C4.3125 6.89583 3.66667 8.47222 3.66667 10.3333C3.66667 12.1944 4.3125 13.7708 5.60417 15.0625C6.89583 16.3542 8.47222 17 10.3333 17Z" fill="#1F2937"/>
</svg>
