<svg width="160" height="70" viewBox="0 0 160 70" fill="none" xmlns="http://www.w3.org/2000/svg">
<rect width="159.222" height="70" fill="#1F2937"/>
<path d="M27.7721 38V19.09H20.9831V16.3H37.6301V19.09H30.8411V38H27.7721ZM40.747 38V16.3H43.785V38H40.747ZM49.3144 38V16.3H52.4454L64.7214 32.916V16.3H67.7904V38H64.7214L52.3524 21.229V38H49.3144ZM81.4433 38.465C79.7693 38.465 78.2916 38.124 77.0103 37.442C75.7496 36.7393 74.7679 35.768 74.0653 34.528C73.3626 33.2673 73.0113 31.8207 73.0113 30.188V16.3H76.0493V30.188C76.0493 31.2627 76.2766 32.2133 76.7313 33.04C77.2066 33.8667 77.8473 34.5073 78.6533 34.962C79.4799 35.4167 80.4306 35.644 81.5053 35.644C82.5799 35.644 83.5306 35.4167 84.3573 34.962C85.1839 34.5073 85.8246 33.8667 86.2793 33.04C86.7339 32.2133 86.9613 31.2627 86.9613 30.188V16.3H90.0303V30.188C90.0303 31.8207 89.6686 33.2673 88.9453 34.528C88.2426 35.768 87.2403 36.7393 85.9383 37.442C84.6569 38.124 83.1586 38.465 81.4433 38.465ZM95.209 38V16.3H101.905C103.972 16.3 105.801 16.765 107.392 17.695C109.004 18.6043 110.265 19.8753 111.174 21.508C112.083 23.1407 112.538 25.0213 112.538 27.15C112.538 29.258 112.083 31.1283 111.174 32.761C110.265 34.3937 109.004 35.675 107.392 36.605C105.801 37.535 103.972 38 101.905 38H95.209ZM98.247 35.148H101.905C102.959 35.148 103.941 34.9517 104.85 34.559C105.759 34.1457 106.555 33.5773 107.237 32.854C107.94 32.11 108.477 31.2523 108.849 30.281C109.242 29.3097 109.438 28.266 109.438 27.15C109.438 26.034 109.242 24.9903 108.849 24.019C108.477 23.0477 107.94 22.2003 107.237 21.477C106.555 20.733 105.759 20.1647 104.85 19.772C103.941 19.3587 102.959 19.152 101.905 19.152H98.247V35.148ZM126.036 38.372C123.928 38.372 122.057 37.8967 120.425 36.946C118.792 35.9953 117.511 34.6727 116.581 32.978C115.671 31.2833 115.217 29.3407 115.217 27.15C115.217 24.9593 115.671 23.027 116.581 21.353C117.511 19.6583 118.782 18.3357 120.394 17.385C122.006 16.4137 123.866 15.928 125.974 15.928C128.082 15.928 129.942 16.4137 131.554 17.385C133.166 18.3357 134.426 19.6583 135.336 21.353C136.245 23.027 136.7 24.9593 136.7 27.15C136.7 29.3407 136.245 31.2833 135.336 32.978C134.426 34.6727 133.166 35.9953 131.554 36.946C129.962 37.8967 128.123 38.372 126.036 38.372ZM126.036 35.582C127.524 35.582 128.836 35.2203 129.973 34.497C131.109 33.7737 131.998 32.7817 132.639 31.521C133.279 30.2603 133.6 28.8033 133.6 27.15C133.6 25.5173 133.269 24.0707 132.608 22.81C131.967 21.5287 131.068 20.5263 129.911 19.803C128.774 19.0797 127.462 18.718 125.974 18.718C124.486 18.718 123.163 19.0797 122.006 19.803C120.848 20.5263 119.939 21.5287 119.278 22.81C118.637 24.0707 118.317 25.5173 118.317 27.15C118.317 28.8033 118.647 30.2603 119.309 31.521C119.97 32.7817 120.879 33.7737 122.037 34.497C123.215 35.2203 124.548 35.582 126.036 35.582Z" fill="white"/>
<path d="M60.8111 56V47.6H63.3911C63.9591 47.6 64.4431 47.688 64.8431 47.864C65.2431 48.04 65.5511 48.296 65.7671 48.632C65.9831 48.968 66.0911 49.372 66.0911 49.844C66.0911 50.284 65.9951 50.664 65.8031 50.984C65.6111 51.304 65.3391 51.556 64.9871 51.74C65.4191 51.94 65.7511 52.212 65.9831 52.556C66.2151 52.892 66.3311 53.292 66.3311 53.756C66.3311 54.228 66.2271 54.632 66.0191 54.968C65.8111 55.304 65.5111 55.56 65.1191 55.736C64.7351 55.912 64.2671 56 63.7151 56H60.8111ZM61.5791 55.292H63.7151C64.2991 55.292 64.7551 55.156 65.0831 54.884C65.4111 54.612 65.5751 54.236 65.5751 53.756C65.5751 53.228 65.3831 52.82 64.9991 52.532C64.6151 52.236 64.0791 52.088 63.3911 52.088H61.5791V55.292ZM61.5791 51.38H63.7151C64.2271 51.38 64.6231 51.244 64.9031 50.972C65.1911 50.7 65.3351 50.324 65.3351 49.844C65.3351 49.348 65.1631 48.968 64.8191 48.704C64.4831 48.432 64.0071 48.296 63.3911 48.296H61.5791V51.38ZM68.1233 58.544C67.9953 58.544 67.8433 58.52 67.6673 58.472C67.4913 58.424 67.2873 58.352 67.0553 58.256L67.3193 57.644C67.5273 57.724 67.7033 57.784 67.8473 57.824C67.9913 57.864 68.1033 57.884 68.1833 57.884C68.4153 57.884 68.6033 57.82 68.7473 57.692C68.8993 57.564 69.0233 57.388 69.1193 57.164L69.8033 55.532L72.1433 50H72.8993L69.9593 56.96C69.8153 57.296 69.6633 57.58 69.5033 57.812C69.3513 58.052 69.1633 58.232 68.9393 58.352C68.7233 58.48 68.4513 58.544 68.1233 58.544ZM69.5993 56L67.0673 50H67.8113L70.1273 55.52L70.3313 56H69.5993ZM79.8453 56.144C79.3733 56.144 78.9573 56.096 78.5973 56C78.2453 55.896 77.9413 55.756 77.6853 55.58C77.4293 55.404 77.2173 55.208 77.0493 54.992C76.8893 54.776 76.7653 54.548 76.6773 54.308L77.3973 54.032C77.5333 54.408 77.8013 54.74 78.2013 55.028C78.6013 55.308 79.0893 55.448 79.6653 55.448C80.4013 55.448 80.9733 55.308 81.3813 55.028C81.7893 54.74 81.9933 54.364 81.9933 53.9C81.9933 53.452 81.8053 53.096 81.4293 52.832C81.0533 52.56 80.5653 52.348 79.9653 52.196L79.1133 51.98C78.7453 51.884 78.4013 51.748 78.0813 51.572C77.7693 51.388 77.5173 51.156 77.3253 50.876C77.1333 50.596 77.0373 50.252 77.0373 49.844C77.0373 49.092 77.2773 48.508 77.7573 48.092C78.2373 47.668 78.9373 47.456 79.8573 47.456C80.4093 47.456 80.8853 47.552 81.2853 47.744C81.6853 47.928 82.0053 48.16 82.2453 48.44C82.4933 48.712 82.6573 48.988 82.7373 49.268L82.0293 49.544C81.8533 49.104 81.5653 48.764 81.1653 48.524C80.7733 48.276 80.2973 48.152 79.7373 48.152C79.1453 48.152 78.6733 48.296 78.3213 48.584C77.9773 48.872 77.8053 49.26 77.8053 49.748C77.8053 50.188 77.9413 50.52 78.2133 50.744C78.4853 50.96 78.8413 51.124 79.2813 51.236L80.1333 51.44C80.9813 51.64 81.6293 51.96 82.0773 52.4C82.5333 52.832 82.7613 53.296 82.7613 53.792C82.7613 54.216 82.6533 54.608 82.4373 54.968C82.2213 55.32 81.8973 55.604 81.4653 55.82C81.0333 56.036 80.4933 56.144 79.8453 56.144ZM88.0556 56L87.9956 55.1V52.784C87.9956 52.272 87.9356 51.852 87.8156 51.524C87.7036 51.188 87.5236 50.936 87.2756 50.768C87.0356 50.6 86.7196 50.516 86.3276 50.516C85.9676 50.516 85.6636 50.588 85.4156 50.732C85.1756 50.876 84.9756 51.1 84.8156 51.404L84.1676 51.116C84.3356 50.828 84.5236 50.592 84.7316 50.408C84.9476 50.224 85.1876 50.088 85.4516 50C85.7156 49.904 86.0076 49.856 86.3276 49.856C86.8636 49.856 87.3076 49.964 87.6596 50.18C88.0116 50.396 88.2756 50.72 88.4516 51.152C88.6276 51.584 88.7156 52.128 88.7156 52.784V56H88.0556ZM86.2076 56.144C85.5036 56.144 84.9516 55.984 84.5516 55.664C84.1596 55.336 83.9636 54.884 83.9636 54.308C83.9636 53.716 84.1596 53.256 84.5516 52.928C84.9516 52.6 85.5036 52.436 86.2076 52.436H88.0076V53.096H86.3036C85.7276 53.096 85.3116 53.204 85.0556 53.42C84.8076 53.628 84.6836 53.924 84.6836 54.308C84.6836 54.676 84.8116 54.964 85.0676 55.172C85.3316 55.38 85.6956 55.484 86.1596 55.484C86.5436 55.484 86.8716 55.408 87.1436 55.256C87.4236 55.096 87.6356 54.864 87.7796 54.56C87.9236 54.256 87.9956 53.88 87.9956 53.432H88.4156C88.4156 54.248 88.2196 54.904 87.8276 55.4C87.4436 55.896 86.9036 56.144 86.2076 56.144ZM92.6273 58.544C92.2673 58.544 91.9353 58.504 91.6313 58.424C91.3273 58.344 91.0713 58.256 90.8633 58.16C90.6553 58.072 90.5113 58.008 90.4313 57.968L90.6953 57.368C90.7913 57.424 90.9353 57.492 91.1273 57.572C91.3273 57.66 91.5553 57.732 91.8113 57.788C92.0753 57.852 92.3473 57.884 92.6273 57.884C93.0433 57.884 93.4153 57.8 93.7433 57.632C94.0713 57.464 94.3273 57.2 94.5113 56.84C94.7033 56.48 94.7993 56.016 94.7993 55.448V50H95.5193V55.448C95.5193 56.144 95.3873 56.72 95.1233 57.176C94.8673 57.64 94.5193 57.984 94.0793 58.208C93.6393 58.432 93.1553 58.544 92.6273 58.544ZM92.6873 56C92.1593 56 91.6913 55.868 91.2833 55.604C90.8753 55.34 90.5553 54.976 90.3233 54.512C90.0913 54.04 89.9753 53.504 89.9753 52.904C89.9753 52.304 90.0913 51.776 90.3233 51.32C90.5553 50.864 90.8753 50.508 91.2833 50.252C91.6913 49.988 92.1593 49.856 92.6873 49.856C93.1993 49.856 93.6473 49.988 94.0313 50.252C94.4233 50.508 94.7273 50.864 94.9433 51.32C95.1673 51.776 95.2793 52.304 95.2793 52.904C95.2793 53.504 95.1673 54.04 94.9433 54.512C94.7273 54.976 94.4233 55.34 94.0313 55.604C93.6473 55.868 93.1993 56 92.6873 56ZM92.8313 55.364C93.2153 55.364 93.5553 55.26 93.8513 55.052C94.1473 54.836 94.3793 54.544 94.5473 54.176C94.7153 53.808 94.7993 53.384 94.7993 52.904C94.7993 52.432 94.7153 52.016 94.5473 51.656C94.3793 51.288 94.1473 51 93.8513 50.792C93.5553 50.584 93.2113 50.48 92.8193 50.48C92.4033 50.48 92.0353 50.584 91.7153 50.792C91.3953 51 91.1433 51.288 90.9593 51.656C90.7833 52.016 90.6953 52.432 90.6953 52.904C90.6953 53.384 90.7873 53.808 90.9713 54.176C91.1553 54.544 91.4073 54.836 91.7273 55.052C92.0473 55.26 92.4153 55.364 92.8313 55.364ZM101.052 56L100.992 55.1V52.784C100.992 52.272 100.932 51.852 100.812 51.524C100.7 51.188 100.52 50.936 100.272 50.768C100.032 50.6 99.7157 50.516 99.3237 50.516C98.9637 50.516 98.6597 50.588 98.4117 50.732C98.1717 50.876 97.9717 51.1 97.8117 51.404L97.1637 51.116C97.3317 50.828 97.5197 50.592 97.7277 50.408C97.9437 50.224 98.1837 50.088 98.4477 50C98.7117 49.904 99.0037 49.856 99.3237 49.856C99.8597 49.856 100.304 49.964 100.656 50.18C101.008 50.396 101.272 50.72 101.448 51.152C101.624 51.584 101.712 52.128 101.712 52.784V56H101.052ZM99.2037 56.144C98.4997 56.144 97.9477 55.984 97.5477 55.664C97.1557 55.336 96.9597 54.884 96.9597 54.308C96.9597 53.716 97.1557 53.256 97.5477 52.928C97.9477 52.6 98.4997 52.436 99.2037 52.436H101.004V53.096H99.2997C98.7237 53.096 98.3077 53.204 98.0517 53.42C97.8037 53.628 97.6797 53.924 97.6797 54.308C97.6797 54.676 97.8077 54.964 98.0637 55.172C98.3277 55.38 98.6917 55.484 99.1557 55.484C99.5397 55.484 99.8677 55.408 100.14 55.256C100.42 55.096 100.632 54.864 100.776 54.56C100.92 54.256 100.992 53.88 100.992 53.432H101.412C101.412 54.248 101.216 54.904 100.824 55.4C100.44 55.896 99.8997 56.144 99.2037 56.144ZM103.631 52.712C103.631 52.064 103.751 51.54 103.991 51.14C104.239 50.74 104.555 50.448 104.939 50.264C105.331 50.072 105.743 49.976 106.175 49.976V50.636C105.823 50.636 105.483 50.7 105.155 50.828C104.835 50.948 104.571 51.156 104.363 51.452C104.155 51.74 104.051 52.136 104.051 52.64L103.631 52.712ZM103.331 56V50H104.051V56H103.331ZM116.307 56L112.875 47.6H113.667L117.123 56H116.307ZM109.419 56L112.875 47.6H113.667L110.235 56H109.419ZM111.051 53.396V52.7H115.491V53.396H111.051ZM118.444 52.712C118.444 52.064 118.564 51.54 118.804 51.14C119.052 50.74 119.368 50.448 119.752 50.264C120.144 50.072 120.556 49.976 120.988 49.976V50.636C120.636 50.636 120.296 50.7 119.968 50.828C119.648 50.948 119.384 51.156 119.176 51.452C118.968 51.74 118.864 52.136 118.864 52.64L118.444 52.712ZM118.144 56V50H118.864V56H118.144ZM124.603 56.144C124.027 56.144 123.515 56.012 123.067 55.748C122.627 55.476 122.279 55.104 122.023 54.632C121.775 54.16 121.651 53.616 121.651 53C121.651 52.384 121.775 51.84 122.023 51.368C122.271 50.896 122.615 50.528 123.055 50.264C123.503 49.992 124.011 49.856 124.579 49.856C125.155 49.856 125.663 49.992 126.103 50.264C126.551 50.528 126.899 50.896 127.147 51.368C127.395 51.84 127.519 52.384 127.519 53C127.519 53.616 127.395 54.16 127.147 54.632C126.899 55.104 126.555 55.476 126.115 55.748C125.675 56.012 125.171 56.144 124.603 56.144ZM124.603 55.484C125.035 55.484 125.415 55.38 125.743 55.172C126.071 54.956 126.327 54.664 126.511 54.296C126.703 53.92 126.799 53.488 126.799 53C126.799 52.512 126.703 52.084 126.511 51.716C126.327 51.34 126.067 51.048 125.731 50.84C125.395 50.624 125.011 50.516 124.579 50.516C124.147 50.516 123.763 50.624 123.427 50.84C123.099 51.048 122.839 51.34 122.647 51.716C122.463 52.084 122.371 52.512 122.371 53C122.371 53.488 122.467 53.92 122.659 54.296C122.851 54.664 123.115 54.956 123.451 55.172C123.787 55.38 124.171 55.484 124.603 55.484ZM129.26 52.712C129.26 52.064 129.38 51.54 129.62 51.14C129.868 50.74 130.184 50.448 130.568 50.264C130.96 50.072 131.372 49.976 131.804 49.976V50.636C131.452 50.636 131.112 50.7 130.784 50.828C130.464 50.948 130.2 51.156 129.992 51.452C129.784 51.74 129.68 52.136 129.68 52.64L129.26 52.712ZM128.96 56V50H129.68V56H128.96ZM136.559 56L136.499 55.1V52.784C136.499 52.272 136.439 51.852 136.319 51.524C136.207 51.188 136.027 50.936 135.779 50.768C135.539 50.6 135.223 50.516 134.831 50.516C134.471 50.516 134.167 50.588 133.919 50.732C133.679 50.876 133.479 51.1 133.319 51.404L132.671 51.116C132.839 50.828 133.027 50.592 133.235 50.408C133.451 50.224 133.691 50.088 133.955 50C134.219 49.904 134.511 49.856 134.831 49.856C135.367 49.856 135.811 49.964 136.163 50.18C136.515 50.396 136.779 50.72 136.955 51.152C137.131 51.584 137.219 52.128 137.219 52.784V56H136.559ZM134.711 56.144C134.007 56.144 133.455 55.984 133.055 55.664C132.663 55.336 132.467 54.884 132.467 54.308C132.467 53.716 132.663 53.256 133.055 52.928C133.455 52.6 134.007 52.436 134.711 52.436H136.511V53.096H134.807C134.231 53.096 133.815 53.204 133.559 53.42C133.311 53.628 133.187 53.924 133.187 54.308C133.187 54.676 133.315 54.964 133.571 55.172C133.835 55.38 134.199 55.484 134.663 55.484C135.047 55.484 135.375 55.408 135.647 55.256C135.927 55.096 136.139 54.864 136.283 54.56C136.427 54.256 136.499 53.88 136.499 53.432H136.919C136.919 54.248 136.723 54.904 136.331 55.4C135.947 55.896 135.407 56.144 134.711 56.144Z" fill="white"/>
</svg>
